<svg width="139" height="46" viewBox="0 0 139 46" fill="none" xmlns="http://www.w3.org/2000/svg">
<rect width="46" height="46" rx="11.5966" fill="#BEC7F4"/>
<path d="M5.79834 11.2101C5.79834 8.00777 8.39434 5.41177 11.5967 5.41177V5.41177C14.799 5.41177 17.395 8.00777 17.395 11.2101V34.7899C17.395 37.9922 14.799 40.5882 11.5967 40.5882V40.5882C8.39434 40.5882 5.79834 37.9922 5.79834 34.7899V11.2101Z" fill="#2A2A2A"/>
<rect x="18.5547" y="18.1681" width="9.27731" height="9.66387" rx="4.63866" fill="#2A2A2A"/>
<path d="M34.7901 40.5882C37.9924 40.5882 40.5884 37.9922 40.5884 34.7899V11.2101C40.5884 8.00776 37.9924 5.41177 34.7901 5.41177V5.41177C31.5877 5.41177 28.9917 8.00777 28.9917 11.2101V34.7899C28.9917 37.9922 31.5877 40.5882 34.7901 40.5882V40.5882Z" fill="#2A2A2A"/>
<path d="M64 35V15.5H67.825V23.025H76.55V15.5H80.375V35H76.55V26.15H67.825V35H64ZM84.2863 35V20H87.9863V35H84.2863ZM86.1363 18.175C85.4697 18.175 84.9613 18 84.6113 17.65C84.2613 17.2833 84.0863 16.8167 84.0863 16.25C84.0863 15.6833 84.2613 15.225 84.6113 14.875C84.9613 14.5083 85.4697 14.325 86.1363 14.325C86.803 14.325 87.3113 14.5083 87.6613 14.875C88.0113 15.225 88.1863 15.6833 88.1863 16.25C88.1863 16.8167 88.0113 17.2833 87.6613 17.65C87.3113 18 86.803 18.175 86.1363 18.175ZM91.8199 35V20H95.1949V22.7H95.7949C95.8949 22.2167 96.0783 21.7583 96.3449 21.325C96.6116 20.8917 97.0283 20.5417 97.5949 20.275C98.1616 19.9917 98.9199 19.85 99.8699 19.85H100.595V23.225H99.5949C98.1616 23.225 97.1199 23.5917 96.4699 24.325C95.8366 25.0583 95.5199 26.1667 95.5199 27.65V35H91.8199ZM108.722 35.375C106.405 35.375 104.639 34.6667 103.422 33.25C102.205 31.8167 101.597 29.8917 101.597 27.475C101.597 25.8583 101.864 24.4667 102.397 23.3C102.947 22.1333 103.747 21.2333 104.797 20.6C105.864 19.95 107.155 19.625 108.672 19.625C110.872 19.625 112.547 20.3 113.697 21.65C114.864 22.9833 115.447 24.95 115.447 27.55V28.375H105.197C105.28 29.7083 105.622 30.7667 106.222 31.55C106.822 32.3167 107.655 32.7 108.722 32.7C109.555 32.7 110.222 32.4583 110.722 31.975C111.222 31.4917 111.564 30.9 111.747 30.2H115.272C115.105 31.15 114.764 32.0167 114.247 32.8C113.73 33.5667 113.014 34.1917 112.097 34.675C111.197 35.1417 110.072 35.375 108.722 35.375ZM105.222 26H111.847C111.78 24.7833 111.472 23.8417 110.922 23.175C110.389 22.5083 109.63 22.175 108.647 22.175C107.664 22.175 106.88 22.5 106.297 23.15C105.714 23.7833 105.355 24.7333 105.222 26ZM119.412 35C118.962 34.4833 118.637 33.9 118.437 33.25C118.237 32.5833 118.137 31.675 118.137 30.525V15H121.862V30.125C121.862 31.4083 122.004 32.4 122.287 33.1C122.57 33.8 122.937 34.3833 123.387 34.85V35H119.412ZM126.704 40V39.925C127.138 39.225 127.604 38.4083 128.104 37.475C128.604 36.5583 129.046 35.6667 129.429 34.8L124.204 20.15V20H127.879L129.754 25.25C129.971 25.9 130.188 26.5917 130.404 27.325C130.638 28.0583 130.871 28.975 131.104 30.075H131.704C131.938 28.975 132.163 28.0583 132.379 27.325C132.613 26.5917 132.846 25.9 133.079 25.25L134.954 20H138.404V20.15L133.679 33.125C133.096 34.725 132.529 36.1083 131.979 37.275C131.429 38.4417 130.963 39.35 130.579 40H126.704Z" fill="black"/>
</svg>
